<?xml version="1.0" encoding="UTF-8" standalone="yes"?>
<!DOCTYPE svg PUBLIC "-//W3C//DTD SVG 1.1//EN" "http://www.w3.org/Graphics/SVG/1.1/DTD/svg11.dtd">

<svg width="30" height="30" viewBox="0 0 30 30" xmlns="http://www.w3.org/2000/svg" xmlns:xlink="http://www.w3.org/1999/xlink" version="1.1" baseProfile="full">
    <defs>
        <radialGradient id="1307352161130976528" cx="12" cy="15" r="53" fx="12" fy="15" gradientUnits="userSpaceOnUse">
            <stop offset="0%" style="stop-color:#ffff07;stop-opacity:1.000000"></stop>
            <stop offset="100%" style="stop-color:#ff007f;stop-opacity:1.000000"></stop>
        </radialGradient>
    </defs>
    <g transform="scale(1.000000,-1.000000) translate(0,-30)">
        <path d="M 11.572575 30.625098 C 13.195712 30.625098 14.473301 30.184782 15.769044 29.487072 C 18.874801 27.814743 21.720606 22.039988 22.558411 18.688745 C 22.808698 17.687622 23.582880 14.209771 23.302008 13.367172 C 23.224354 13.134192 22.882673 12.908484 22.694205 12.584780 C 22.863553 12.697679 22.964618 12.867518 23.095097 12.824021 C 23.533728 12.677815 23.016541 9.846735 22.868785 9.403479 C 22.044419 6.930367 20.949642 4.964685 18.898628 3.286577 C 15.879512 0.816396 10.975563 0.235249 7.518356 2.096827 C 6.826583 2.469316 6.089539 2.848498 5.475073 3.351237 C 5.155149 3.612999 4.872669 4.069506 4.395244 4.308218 C 3.388499 5.269946 2.678486 6.492711 2.170924 7.677036 C -0.134483 13.056307 1.238903 19.133228 3.910289 24.094373 C 4.788671 25.725653 5.880238 27.428474 7.337303 28.620618 C 8.353624 29.452153 9.410592 29.997117 10.654397 30.411714 C 10.896123 30.492294 11.177371 30.467016 11.572575 30.625098 Z" transform="scale(1.000000,1.000000) translate(2.818748,-0.812549)" fill="url(#1307352161130976528)" opacity="1.000000"></path>
    </g>
</svg>